<svg width="100" height="100" viewBox="0 0 100 100" fill="none" xmlns="http://www.w3.org/2000/svg">
<rect width="100" height="100" rx="50" fill="#FFF6F6"/>
<path d="M50.0016 54.9995C52.7629 54.9995 55.0016 52.7608 55.0016 49.9995C55.0016 47.238 52.7629 44.9995 50.0016 44.9995C47.2401 44.9995 45.0016 47.238 45.0016 49.9995C45.0016 52.7608 47.2401 54.9995 50.0016 54.9995Z" fill="#F57C75"/>
<path fill-rule="evenodd" clip-rule="evenodd" d="M44.1158 44.0922C40.862 47.36 40.8656 52.6398 44.1133 55.8877L41.7563 58.2447C37.204 53.6923 37.2076 46.3057 41.7538 41.7402L44.1158 44.0922Z" fill="#F57C75"/>
<path fill-rule="evenodd" clip-rule="evenodd" d="M55.9033 55.9068C59.1572 52.639 59.1535 47.359 55.9058 44.1113L58.2628 41.7543C62.8152 46.3065 62.8115 53.6931 58.2653 58.2588L55.9033 55.9068Z" fill="#F57C75"/>
<path fill-rule="evenodd" clip-rule="evenodd" d="M39.3946 39.3962C33.5317 45.2441 33.5295 54.7377 39.3961 60.6043L37.0391 62.9613C29.8724 55.7947 29.8702 44.1882 37.0406 37.0361L39.3946 39.3962Z" fill="#F57C75"/>
<path fill-rule="evenodd" clip-rule="evenodd" d="M60.6072 60.6028C66.4702 54.7548 66.4724 45.2613 60.6057 39.3947L62.9627 37.0377C70.1294 44.2044 70.1315 55.8108 62.9612 62.9628L60.6072 60.6028Z" fill="#F57C75"/>
</svg>
