<svg width="100" height="100" viewBox="0 0 100 100" fill="none" xmlns="http://www.w3.org/2000/svg">
<rect width="100" height="100" rx="50" fill="#FFFAEC"/>
<path d="M36.6324 40.0163V63.533C36.6794 64.3848 37.0512 65.1863 37.6713 65.7723C38.2914 66.3583 39.1126 66.6842 39.9658 66.683H59.9658C60.819 66.6842 61.6401 66.3583 62.2603 65.7723C62.8805 65.1863 63.2521 64.3848 63.2991 63.533V40.0163H36.6324Z" fill="#E7ECEF"/>
<path d="M63.2991 36.6829C63.2991 35.7989 62.948 34.951 62.3228 34.3259C61.6976 33.7008 60.8498 33.3496 59.9658 33.3496H39.9658C39.0817 33.3496 38.2339 33.7008 37.6088 34.3259C36.9836 34.951 36.6324 35.7989 36.6324 36.6829V40.0163H63.2991V36.6829Z" fill="#FFC738"/>
<path d="M57.6388 45H42.3611C41.9775 45 41.6666 45.3731 41.6666 45.8333V47.5C41.6666 47.9602 41.9775 48.3333 42.3611 48.3333H57.6388C58.0225 48.3333 58.3333 47.9602 58.3333 47.5V45.8333C58.3333 45.3731 58.0225 45 57.6388 45Z" fill="#C7CED5"/>
<path d="M57.6388 50.8333H42.3611C41.9775 50.8333 41.6666 51.2065 41.6666 51.6666V53.3333C41.6666 53.7935 41.9775 54.1666 42.3611 54.1666H57.6388C58.0225 54.1666 58.3333 53.7935 58.3333 53.3333V51.6666C58.3333 51.2065 58.0225 50.8333 57.6388 50.8333Z" fill="#C7CED5"/>
<path d="M57.6388 56.6667H42.3611C41.9775 56.6667 41.6666 57.0399 41.6666 57.5V59.1667C41.6666 59.6269 41.9775 60 42.3611 60H57.6388C58.0225 60 58.3333 59.6269 58.3333 59.1667V57.5C58.3333 57.0399 58.0225 56.6667 57.6388 56.6667Z" fill="#C7CED5"/>
</svg>
