<svg width="100" height="100" viewBox="0 0 100 100" fill="none" xmlns="http://www.w3.org/2000/svg">
<rect width="100" height="100" rx="50" fill="#F4FAFF"/>
<path d="M53.3333 55H46.6666V61.6667H53.3333V55Z" fill="#737A83"/>
<path d="M56.6666 61.6667H43.3333C42.4128 61.6667 41.6666 62.4129 41.6666 63.3334C41.6666 64.2539 42.4128 65 43.3333 65H56.6666C57.5871 65 58.3333 64.2539 58.3333 63.3334C58.3333 62.4129 57.5871 61.6667 56.6666 61.6667Z" fill="#737A83"/>
<path d="M65 35H35C34.0796 35 33.3334 35.7462 33.3334 36.6667V55C33.3334 55.9205 34.0796 56.6667 35 56.6667H65C65.9205 56.6667 66.6667 55.9205 66.6667 55V36.6667C66.6667 35.7462 65.9205 35 65 35Z" fill="#737A83"/>
<path d="M63.3333 38.3333H36.6666V53.3333H63.3333V38.3333Z" fill="url(#paint0_linear_116_5954)"/>
<defs>
<linearGradient id="paint0_linear_116_5954" x1="37.5" y1="38.3333" x2="63.3333" y2="53.3333" gradientUnits="userSpaceOnUse">
<stop stop-color="#B8E7FB"/>
<stop offset="1" stop-color="#C1B8FB"/>
</linearGradient>
</defs>
</svg>
