<svg width="100" height="100" viewBox="0 0 100 100" fill="none" xmlns="http://www.w3.org/2000/svg">
<rect width="100" height="100" rx="50" fill="#F8F8F8"/>
<path d="M47.5 58.6834C53.6765 58.6834 58.6835 53.6765 58.6835 47.5C58.6835 41.3237 53.6765 36.3168 47.5 36.3168C41.3237 36.3168 36.3168 41.3237 36.3168 47.5C36.3168 53.6765 41.3237 58.6834 47.5 58.6834Z" fill="#EFF7FF"/>
<path d="M47.5 37.5C50.1522 37.5 52.6957 38.5536 54.571 40.429C56.4464 42.3043 57.5 44.8479 57.5 47.5C57.5 50.1522 56.4464 52.6957 54.571 54.571C52.6957 56.4465 50.1522 57.5 47.5 57.5C44.8479 57.5 42.3043 56.4465 40.429 54.571C38.5536 52.6957 37.5 50.1522 37.5 47.5C37.5 44.8479 38.5536 42.3043 40.429 40.429C42.3043 38.5536 44.8479 37.5 47.5 37.5ZM47.5 33.3334C43.7442 33.3378 40.1434 34.8318 37.4876 37.4876C34.8317 40.1434 33.3378 43.7442 33.3334 47.5C33.3334 49.3604 33.6998 51.2025 34.4117 52.9214C35.1237 54.6402 36.1672 56.2019 37.4827 57.5174C38.7982 58.8329 40.3599 59.8764 42.0787 60.5884C43.7975 61.3002 45.6396 61.6667 47.5 61.6667C49.361 61.6689 51.2042 61.304 52.924 60.5929C54.6437 59.8817 56.2064 58.8382 57.5222 57.5222C58.8382 56.2064 59.8817 54.6437 60.5929 52.924C61.304 51.2042 61.6689 49.361 61.6667 47.5C61.6667 43.7428 60.1742 40.1395 57.5174 37.4827C54.8605 34.8259 51.2572 33.3334 47.5 33.3334Z" fill="#737A83"/>
<path fill-rule="evenodd" clip-rule="evenodd" d="M57.4754 54.5114L66.4754 63.528L63.5264 66.4715L54.5264 57.4549L57.4754 54.5114Z" fill="#737A83"/>
</svg>
