<svg width="100" height="100" viewBox="0 0 100 100" fill="none" xmlns="http://www.w3.org/2000/svg">
<rect width="100" height="100" rx="50" fill="#F2FDF9"/>
<path d="M51.534 33.3333H65.0006C65.4426 33.3333 65.8666 33.5089 66.1791 33.8214C66.4918 34.134 66.6673 34.5579 66.6673 35V48.45C66.6676 48.8898 66.581 49.3253 66.4121 49.7316C66.2435 50.1378 65.996 50.5065 65.684 50.8166L49.0173 67.4833C48.7078 67.7931 48.3401 68.0392 47.9355 68.2068C47.5308 68.3746 47.0971 68.461 46.659 68.461C46.2209 68.461 45.7872 68.3746 45.3825 68.2068C44.9778 68.0392 44.6102 67.7931 44.3006 67.4833L32.5173 55.7C32.2074 55.3903 31.9615 55.0228 31.7938 54.6181C31.626 54.2135 31.5397 53.7796 31.5397 53.3416C31.5397 52.9036 31.626 52.4698 31.7938 52.0651C31.9615 51.6605 32.2074 51.2928 32.5173 50.9833L49.184 34.3166C49.8063 33.6907 50.6513 33.337 51.534 33.3333Z" fill="#7AD7B5"/>
<path d="M57.233 46.1003C59.074 46.1003 60.5663 44.6079 60.5663 42.7669C60.5663 40.926 59.074 39.4336 57.233 39.4336C55.3922 39.4336 53.8997 40.926 53.8997 42.7669C53.8997 44.6079 55.3922 46.1003 57.233 46.1003Z" fill="white"/>
</svg>
