<svg width="100" height="100" viewBox="0 0 100 100" fill="none" xmlns="http://www.w3.org/2000/svg">
<rect width="100" height="100" rx="50" fill="#FAF5FF"/>
<path d="M56.6667 31.6666H43.3334C40.572 31.6666 38.3334 33.9052 38.3334 36.6666V63.3333C38.3334 66.0948 40.572 68.3333 43.3334 68.3333H56.6667C59.4282 68.3333 61.6667 66.0948 61.6667 63.3333V36.6666C61.6667 33.9052 59.4282 31.6666 56.6667 31.6666Z" fill="#737A83"/>
<path d="M56.6666 35H43.3333C42.4128 35 41.6666 35.7462 41.6666 36.6667V63.3333C41.6666 64.2538 42.4128 65 43.3333 65H56.6666C57.5871 65 58.3333 64.2538 58.3333 63.3333V36.6667C58.3333 35.7462 57.5871 35 56.6666 35Z" fill="url(#paint0_linear_116_5939)"/>
<path d="M51.6666 33.3334H48.3333C47.4128 33.3334 46.6666 34.0796 46.6666 35C46.6666 35.9205 47.4128 36.6667 48.3333 36.6667H51.6666C52.5871 36.6667 53.3333 35.9205 53.3333 35C53.3333 34.0796 52.5871 33.3334 51.6666 33.3334Z" fill="#737A83"/>
<defs>
<linearGradient id="paint0_linear_116_5939" x1="41.6666" y1="35" x2="58.3333" y2="65" gradientUnits="userSpaceOnUse">
<stop stop-color="#C6BFF7"/>
<stop offset="1" stop-color="#FEDFEE"/>
</linearGradient>
</defs>
</svg>
