<svg width="66" height="36" viewBox="0 0 66 36" fill="none" xmlns="http://www.w3.org/2000/svg">
<path d="M1.57031 27V10.0312H4.61719V24.4219H12.1172V27H1.57031ZM29.0156 18.5156C29.0273 24 25.6758 27.2344 21.2344 27.2344C16.7695 27.2344 13.4414 23.9883 13.4531 18.5156C13.4414 13.0312 16.7695 9.79688 21.2344 9.79688C25.6758 9.79688 29.0273 13.0312 29.0156 18.5156ZM16.5234 18.5156C16.5117 22.3945 18.4688 24.4922 21.2344 24.4922C24.0117 24.4922 25.957 22.3945 25.9453 18.5156C25.957 14.6367 24.0117 12.5391 21.2344 12.5391C18.4688 12.5391 16.5117 14.6367 16.5234 18.5156ZM43.1016 15.4453C42.5508 13.6406 41.1562 12.5391 39.0938 12.5391C36.3633 12.5391 34.3711 14.6719 34.3828 18.4922C34.3711 22.3477 36.3281 24.4922 39.1641 24.4922C41.7305 24.4922 43.3594 22.9453 43.4062 20.5312H39.4688V18.1172H46.3594V20.1562C46.3594 24.5273 43.3594 27.2344 39.1641 27.2344C34.4766 27.2344 31.3008 23.8945 31.3125 18.5156C31.3008 13.0664 34.6289 9.79688 39.0703 9.79688C42.8086 9.79688 45.7031 12.1172 46.2188 15.4453H43.1016ZM64.2656 18.5156C64.2773 24 60.9258 27.2344 56.4844 27.2344C52.0195 27.2344 48.6914 23.9883 48.7031 18.5156C48.6914 13.0312 52.0195 9.79688 56.4844 9.79688C60.9258 9.79688 64.2773 13.0312 64.2656 18.5156ZM51.7734 18.5156C51.7617 22.3945 53.7188 24.4922 56.4844 24.4922C59.2617 24.4922 61.207 22.3945 61.1953 18.5156C61.207 14.6367 59.2617 12.5391 56.4844 12.5391C53.7188 12.5391 51.7617 14.6367 51.7734 18.5156Z" fill="white"/>
</svg>
