<svg width="1200" height="123" viewBox="0 0 1200 123" fill="none" xmlns="http://www.w3.org/2000/svg">
<path d="M485.864 53.8677C482.728 53.8677 479.848 53.1317 477.224 51.6597C474.6 50.1877 472.52 48.1557 470.984 45.5637C469.448 42.9397 468.68 39.9797 468.68 36.6837C468.68 33.4197 469.448 30.4917 470.984 27.8997C472.52 25.2757 474.6 23.2277 477.224 21.7557C479.848 20.2837 482.728 19.5477 485.864 19.5477C489.032 19.5477 491.912 20.2837 494.504 21.7557C497.128 23.2277 499.192 25.2757 500.696 27.8997C502.232 30.4917 503 33.4197 503 36.6837C503 39.9797 502.232 42.9397 500.696 45.5637C499.192 48.1557 497.128 50.1877 494.504 51.6597C491.88 53.1317 489 53.8677 485.864 53.8677ZM485.864 47.8677C487.88 47.8677 489.656 47.4197 491.192 46.5237C492.728 45.5957 493.928 44.2837 494.792 42.5877C495.656 40.8917 496.088 38.9237 496.088 36.6837C496.088 34.4437 495.656 32.4917 494.792 30.8277C493.928 29.1317 492.728 27.8357 491.192 26.9397C489.656 26.0437 487.88 25.5957 485.864 25.5957C483.848 25.5957 482.056 26.0437 480.488 26.9397C478.952 27.8357 477.752 29.1317 476.888 30.8277C476.024 32.4917 475.592 34.4437 475.592 36.6837C475.592 38.9237 476.024 40.8917 476.888 42.5877C477.752 44.2837 478.952 45.5957 480.488 46.5237C482.056 47.4197 483.848 47.8677 485.864 47.8677ZM513.624 20.0277V40.7637C513.624 43.0357 514.216 44.7797 515.4 45.9957C516.584 47.1797 518.248 47.7717 520.392 47.7717C522.568 47.7717 524.248 47.1797 525.432 45.9957C526.616 44.7797 527.208 43.0357 527.208 40.7637V20.0277H533.976V40.7157C533.976 43.5637 533.352 45.9797 532.104 47.9637C530.888 49.9157 529.24 51.3877 527.16 52.3797C525.112 53.3717 522.824 53.8677 520.296 53.8677C517.8 53.8677 515.528 53.3717 513.48 52.3797C511.464 51.3877 509.864 49.9157 508.68 47.9637C507.496 45.9797 506.904 43.5637 506.904 40.7157V20.0277H513.624ZM556.748 53.5317L549.356 40.4757H546.188V53.5317H539.468V20.0277H552.044C554.636 20.0277 556.844 20.4917 558.668 21.4197C560.492 22.3157 561.852 23.5477 562.748 25.1157C563.676 26.6517 564.14 28.3797 564.14 30.2997C564.14 32.5077 563.5 34.5077 562.22 36.2997C560.94 38.0597 559.036 39.2757 556.508 39.9477L564.524 53.5317H556.748ZM546.188 35.4357H551.804C553.628 35.4357 554.988 35.0037 555.884 34.1397C556.78 33.2437 557.228 32.0117 557.228 30.4437C557.228 28.9077 556.78 27.7237 555.884 26.8917C554.988 26.0277 553.628 25.5957 551.804 25.5957H546.188V35.4357ZM578.024 36.7317C578.024 33.4357 578.76 30.4917 580.232 27.8997C581.736 25.2757 583.768 23.2437 586.328 21.8037C588.92 20.3317 591.816 19.5957 595.016 19.5957C598.76 19.5957 602.04 20.5557 604.856 22.4757C607.672 24.3957 609.64 27.0517 610.76 30.4437H603.032C602.264 28.8437 601.176 27.6437 599.768 26.8437C598.392 26.0437 596.792 25.6437 594.968 25.6437C593.016 25.6437 591.272 26.1077 589.736 27.0357C588.232 27.9317 587.048 29.2117 586.184 30.8757C585.352 32.5397 584.936 34.4917 584.936 36.7317C584.936 38.9397 585.352 40.8917 586.184 42.5877C587.048 44.2517 588.232 45.5477 589.736 46.4757C591.272 47.3717 593.016 47.8197 594.968 47.8197C596.792 47.8197 598.392 47.4197 599.768 46.6197C601.176 45.7877 602.264 44.5717 603.032 42.9717H610.76C609.64 46.3957 607.672 49.0677 604.856 50.9877C602.072 52.8757 598.792 53.8197 595.016 53.8197C591.816 53.8197 588.92 53.0997 586.328 51.6597C583.768 50.1877 581.736 48.1557 580.232 45.5637C578.76 42.9717 578.024 40.0277 578.024 36.7317ZM622.22 48.2037H633.26V53.5317H615.5V20.0277H622.22V48.2037ZM643.251 20.0277V53.5317H636.531V20.0277H643.251ZM655.61 25.4517V33.8517H666.89V39.1797H655.61V48.0597H668.33V53.5317H648.89V19.9797H668.33V25.4517H655.61ZM702.093 53.5317H695.373L680.157 30.5397V53.5317H673.437V19.9797H680.157L695.373 43.0197V19.9797H702.093V53.5317ZM730.534 20.0277V25.4517H721.606V53.5317H714.886V25.4517H705.958V20.0277H730.534Z" fill="#222222"/>
<path d="M145.607 100.194V114.202H143.91V106.875H139.979V105.479H143.91V100.194H145.607ZM129.859 110.377C132.674 109.389 134.715 106.865 134.715 104.125V103.137H130.396V101.741H140.688V103.137H136.412V104.125C136.412 106.596 138.324 108.992 141.117 109.948L140.236 111.301C138.088 110.517 136.423 108.917 135.596 106.94C134.769 109.153 133.007 110.904 130.74 111.752L129.859 110.377ZM133.34 118.864V112.934H135.037V117.446H146.145V118.864H133.34ZM165.754 109.948V111.344H157.977V115.254H156.301V111.344H148.266V109.948H165.754ZM150.5 118.864V113.364H152.197V117.446H163.799V118.864H150.5ZM150.543 107.756V101.118H163.477V107.756H150.543ZM152.197 106.403H161.801V102.45H152.197V106.403ZM173.439 103.696C173.439 106.177 175.352 108.551 178.145 109.518L177.264 110.85C175.115 110.077 173.45 108.476 172.634 106.51C171.807 108.702 170.034 110.463 167.768 111.301L166.887 109.969C169.701 108.959 171.742 106.414 171.742 103.717V102.879H167.424V101.504H177.715V102.879H173.439V103.696ZM169.787 114.03V112.633H182.635V119.272H180.938V114.03H169.787ZM177.113 106.596V105.178H180.938V100.172H182.635V111.624H180.938V106.596H177.113ZM201.084 100.194V114.159H199.408V100.194H201.084ZM185.766 106.209C185.755 103.459 187.914 101.537 190.771 101.526C193.629 101.537 195.767 103.459 195.777 106.209C195.767 108.992 193.629 110.925 190.771 110.915C187.914 110.925 185.755 108.992 185.766 106.209ZM187.42 106.209C187.398 108.111 188.838 109.432 190.771 109.432C192.673 109.432 194.123 108.111 194.123 106.209C194.123 104.34 192.673 103.008 190.771 103.008C188.838 103.008 187.398 104.34 187.42 106.209ZM188.752 118.864V112.741H190.428V117.446H201.686V118.864H188.752ZM224.662 100.172V110.549H222.986V106.231H219.119V104.813H222.986V100.172H224.662ZM208.936 109.54C211.75 108.519 213.791 105.995 213.791 103.288V102.729H209.473V101.333H219.764V102.729H215.488V103.288C215.488 105.737 217.4 108.143 220.193 109.11L219.312 110.42C217.164 109.636 215.499 108.036 214.672 106.081C213.855 108.272 212.083 110.044 209.816 110.872L208.936 109.54ZM212.373 119.014V111.473H214.07V113.858H222.986V111.473H224.662V119.014H212.373ZM214.07 117.639H222.986V115.211H214.07V117.639ZM242.553 101.333V102.815C242.553 104.426 242.553 106.36 242.048 108.959H244.852V110.377H227.363V108.959H240.372C240.888 106.317 240.888 104.437 240.877 102.815V102.708H229.576V101.333H242.553ZM229.684 118.842V112.526H231.359V117.424H243.133V118.842H229.684ZM256.469 102.299V103.288C256.458 104.802 256.458 107.327 255.91 110.872L254.213 110.721C254.739 107.52 254.782 105.2 254.771 103.674H246.758V102.299H256.469ZM245.684 113.665C246.94 113.654 248.337 113.643 249.809 113.611V107.756H251.463V113.557C253.579 113.482 255.749 113.342 257.736 113.106L257.822 114.374C253.805 114.997 249.314 115.083 245.898 115.061L245.684 113.665ZM258.939 119.272V100.172H260.615V108.165H263.709V109.625H260.615V119.272H258.939ZM276.652 110.249V113.772C278.5 113.675 280.369 113.525 282.131 113.256L282.26 114.502C277.888 115.297 273.193 115.33 269.756 115.319L269.52 113.922C271.12 113.912 273.011 113.901 274.998 113.836V110.249H276.652ZM270.1 109.583C272.925 108.745 274.912 106.65 274.955 104.083H270.572V102.686H274.998V100.323H276.652V102.686H281.143V104.083H276.652C276.706 106.542 278.747 108.562 281.572 109.368L280.777 110.7C278.489 110.012 276.685 108.541 275.825 106.607C274.998 108.648 273.215 110.173 270.916 110.872L270.1 109.583ZM283.398 119.315V100.172H285.074V119.315H283.398ZM303.695 100.194V114.202H302.02V100.194H303.695ZM288.119 110.12C291.009 108.992 292.975 106.199 292.975 103.18V101.268H294.693V103.18C294.672 106.091 296.659 108.702 299.506 109.733L298.625 111.086C296.412 110.238 294.693 108.519 293.845 106.317C293.018 108.659 291.277 110.539 289.043 111.43L288.119 110.12ZM291.363 118.864V112.913H293.039V117.446H304.297V118.864H291.363ZM327.252 100.172V119.272H325.555V100.172H327.252ZM311.697 114.309C316.864 111.86 319.507 108.197 319.883 103.631H312.578V102.256H321.602C321.58 107.746 319.023 112.612 312.621 115.684L311.697 114.309ZM339.557 101.01C339.546 103.384 342.994 105.21 346.432 105.629L345.83 106.918C342.822 106.51 339.879 105.167 338.676 103.105C337.451 105.167 334.497 106.51 331.521 106.918L330.941 105.629C334.368 105.21 337.816 103.384 337.816 101.01V100.28H339.557V101.01ZM329.975 109.54V108.165H347.377V109.54H339.492V111.452H345.143V115.792H333.799V117.725H345.723V119.057H332.123V114.524H343.488V112.784H332.08V111.452H337.816V109.54H329.975ZM357.189 100.516C361.433 100.516 363.925 101.687 363.936 103.803C363.925 105.973 361.433 107.144 357.189 107.155C352.925 107.144 350.422 105.973 350.422 103.803C350.422 101.687 352.925 100.516 357.189 100.516ZM348.488 109.819V108.444H365.891V109.819H348.488ZM350.594 112.762V111.473H363.656V115.749H352.312V117.725H364.236V119.057H350.637V114.502H362.002V112.762H350.594ZM352.184 103.803C352.162 105.135 354.021 105.866 357.189 105.866C360.358 105.866 362.206 105.135 362.217 103.803C362.206 102.546 360.358 101.794 357.189 101.784C354.021 101.794 352.162 102.546 352.184 103.803ZM386.934 100.172V105.071H389.791V106.51H386.934V111.452H385.236V100.172H386.934ZM371.938 109.733C373.463 109.733 375.246 109.733 377.115 109.679V108.498C374.87 108.315 373.452 107.423 373.463 105.973C373.452 104.405 375.214 103.492 377.932 103.502C380.649 103.492 382.4 104.405 382.422 105.973C382.4 107.413 381.015 108.304 378.791 108.498V109.615C380.574 109.529 382.379 109.389 384.055 109.153L384.205 110.292C380.08 110.968 375.493 111 372.131 111L371.938 109.733ZM372.41 102.858V101.633H377.115V100H378.791V101.633H383.475V102.858H372.41ZM374.494 113.514V112.311H386.934V116.157H376.213V117.854H387.664V119.057H374.537V115.018H385.258V113.514H374.494ZM375.074 105.973C375.063 106.833 376.17 107.38 377.932 107.391C379.693 107.38 380.811 106.833 380.811 105.973C380.811 105.135 379.693 104.63 377.932 104.62C376.17 104.63 375.063 105.135 375.074 105.973ZM407.939 109.625V111.022H390.537V109.625H394.855V106.929C393.33 106.338 392.471 105.372 392.471 104.083C392.471 101.837 395.049 100.548 399.238 100.538C403.396 100.548 405.974 101.837 405.984 104.083C405.974 105.361 405.125 106.328 403.621 106.929V109.625H407.939ZM392.643 115.856C392.632 113.675 395.092 112.472 399.238 112.483C403.331 112.472 405.791 113.675 405.812 115.856C405.791 118.037 403.331 119.229 399.238 119.229C395.092 119.229 392.632 118.037 392.643 115.856ZM394.211 104.083C394.2 105.479 396.112 106.285 399.238 106.295C402.332 106.285 404.255 105.479 404.266 104.083C404.255 102.708 402.332 101.87 399.238 101.87C396.112 101.87 394.2 102.708 394.211 104.083ZM394.361 115.856C394.34 117.156 396.177 117.929 399.238 117.918C402.268 117.929 404.104 117.156 404.115 115.856C404.104 114.556 402.268 113.793 399.238 113.772C396.177 113.793 394.34 114.556 394.361 115.856ZM396.531 109.625H401.945V107.38C401.14 107.531 400.237 107.606 399.238 107.606C398.239 107.606 397.337 107.531 396.531 107.391V109.625ZM423.832 100.172V108.057H427.033V109.454H423.832V119.272H422.156V100.172H423.832ZM408.943 104.641V103.245H413.863V100.409H415.539V103.245H420.309V104.641H408.943ZM410.039 110.614C410.028 108.036 412.005 106.231 414.723 106.231C417.419 106.231 419.385 108.036 419.406 110.614C419.385 113.203 417.419 114.997 414.723 114.997C412.005 114.997 410.028 113.203 410.039 110.614ZM411.65 110.614C411.64 112.354 412.939 113.579 414.723 113.557C416.484 113.579 417.773 112.354 417.795 110.614C417.773 108.884 416.484 107.638 414.723 107.649C412.939 107.638 411.64 108.884 411.65 110.614ZM432.699 101.655C434.45 101.666 435.879 102.686 436.706 104.448H441.723V100.172H443.398V119.315H441.723V111.903H436.824C436.029 113.836 434.547 114.964 432.699 114.954C429.874 114.964 427.897 112.386 427.908 108.315C427.897 104.254 429.874 101.666 432.699 101.655ZM429.52 108.315C429.53 111.419 430.819 113.46 432.699 113.45C434.568 113.46 435.879 111.419 435.879 108.315C435.879 105.21 434.568 103.169 432.699 103.159C430.819 103.169 429.53 105.21 429.52 108.315ZM437.189 105.866C437.372 106.607 437.469 107.423 437.469 108.315C437.469 109.099 437.394 109.84 437.254 110.506H441.723V105.866H437.189ZM467.471 100.172V119.272H465.838V100.172H467.471ZM451.336 108.422C451.347 104.362 452.958 101.794 455.439 101.784C457.072 101.794 458.329 102.901 459.017 104.813H462.057V100.581H463.668V118.305H462.057V112.032H459.017C458.34 113.955 457.072 115.072 455.439 115.061C452.958 115.072 451.347 112.483 451.336 108.422ZM452.904 108.422C452.894 111.516 453.871 113.471 455.439 113.45C456.997 113.471 457.996 111.516 457.996 108.422C457.996 105.318 456.997 103.374 455.439 103.374C453.871 103.374 452.894 105.318 452.904 108.422ZM459.371 106.209C459.5 106.886 459.564 107.627 459.564 108.422C459.564 109.207 459.5 109.948 459.382 110.614H462.057V106.209H459.371ZM475.994 103.266C475.994 105.866 477.971 108.25 480.742 109.196L479.818 110.528C477.713 109.754 476.048 108.175 475.21 106.177C474.394 108.444 472.686 110.195 470.451 111.065L469.549 109.711C472.406 108.648 474.329 106.091 474.34 103.137V101.161H475.994V103.266ZM472.084 115.749C472.095 113.568 474.49 112.29 478.422 112.29C482.343 112.29 484.717 113.568 484.717 115.749C484.717 117.972 482.343 119.229 478.422 119.229C474.49 119.229 472.095 117.972 472.084 115.749ZM473.781 115.749C473.76 117.102 475.543 117.886 478.422 117.897C481.312 117.886 483.073 117.102 483.084 115.749C483.073 114.449 481.312 113.643 478.422 113.643C475.543 113.643 473.76 114.449 473.781 115.749ZM482.869 111.795V100.172H484.545V105.157H487.424V106.575H484.545V111.795H482.869ZM499.723 103.18C499.701 105.909 501.646 108.304 504.449 109.26L503.504 110.571C501.398 109.787 499.744 108.229 498.917 106.22C498.101 108.508 496.36 110.281 494.051 111.151L493.127 109.776C496.07 108.745 498.025 106.209 498.047 103.245V101.268H499.723V103.18ZM496.242 115.663C496.231 113.364 498.67 112.042 502.645 112.053C506.608 112.042 509.047 113.364 509.047 115.663C509.047 117.94 506.608 119.229 502.645 119.229C498.67 119.229 496.231 117.94 496.242 115.663ZM497.918 115.663C497.907 117.048 499.712 117.886 502.645 117.875C505.566 117.886 507.371 117.048 507.371 115.663C507.371 114.234 505.566 113.385 502.645 113.385C499.712 113.385 497.907 114.234 497.918 115.663ZM503.031 105.672V104.276H507.285V100.172H508.982V111.495H507.285V105.672H503.031ZM522.254 102.299V103.288C522.243 104.802 522.243 107.327 521.695 110.872L519.998 110.721C520.524 107.52 520.567 105.2 520.557 103.674H512.543V102.299H522.254ZM511.469 113.665C512.726 113.654 514.122 113.643 515.594 113.611V107.756H517.248V113.557C519.364 113.482 521.534 113.342 523.521 113.106L523.607 114.374C519.59 114.997 515.1 115.083 511.684 115.061L511.469 113.665ZM524.725 119.272V100.172H526.4V108.165H529.494V109.625H526.4V119.272H524.725ZM547.643 109.045V110.377H530.154V109.045H547.643ZM532.26 113.17V111.903H545.451V115.963H533.979V117.79H546.074V119.014H532.281V114.803H543.775V113.17H532.26ZM532.367 101.977V100.752H545.387V104.706H534.107V106.381H545.73V107.606H532.432V103.545H543.689V101.977H532.367ZM568.814 101.418V103.094C568.814 104.899 568.814 106.886 568.267 109.625H571.113V111.022H563.229V119.315H561.531V111.022H553.711V109.625H566.559C567.139 106.875 567.139 104.877 567.139 103.094V102.815H555.902V101.418H568.814ZM577.811 106.059C577.821 109.131 579.379 112.279 581.979 113.665L581.012 114.932C579.11 113.89 577.735 111.914 577.037 109.615C576.36 112.064 574.996 114.212 573.084 115.362L572.074 114.073C574.674 112.569 576.21 109.217 576.221 106.059V105.114H572.59V103.717H576.221V100.881H577.832V103.717H581.398V105.114H577.811V106.059ZM580.088 109.153V107.713H583.096V100.645H584.686V118.284H583.096V109.153H580.088ZM586.941 119.272V100.172H588.553V119.272H586.941ZM597.377 103.696C597.377 106.177 599.289 108.551 602.082 109.518L601.201 110.85C599.053 110.077 597.388 108.476 596.571 106.51C595.744 108.702 593.972 110.463 591.705 111.301L590.824 109.969C593.639 108.959 595.68 106.414 595.68 103.717V102.879H591.361V101.504H601.652V102.879H597.377V103.696ZM593.725 114.03V112.633H606.572V119.272H604.875V114.03H593.725ZM601.051 106.596V105.178H604.875V100.172H606.572V111.624H604.875V106.596H601.051ZM625.021 100.194V114.159H623.346V100.194H625.021ZM609.703 106.209C609.692 103.459 611.852 101.537 614.709 101.526C617.566 101.537 619.704 103.459 619.715 106.209C619.704 108.992 617.566 110.925 614.709 110.915C611.852 110.925 609.692 108.992 609.703 106.209ZM611.357 106.209C611.336 108.111 612.775 109.432 614.709 109.432C616.61 109.432 618.061 108.111 618.061 106.209C618.061 104.34 616.61 103.008 614.709 103.008C612.775 103.008 611.336 104.34 611.357 106.209ZM612.689 118.864V112.741H614.365V117.446H625.623V118.864H612.689ZM639.619 106.038C639.63 109.282 641.982 112.58 644.797 113.793L643.852 115.125C641.617 114.116 639.694 111.914 638.803 109.271C637.911 112.075 635.978 114.502 633.797 115.598L632.787 114.266C635.526 112.956 637.911 109.346 637.922 106.038V103.545H633.41V102.149H644.174V103.545H639.619V106.038ZM646.838 119.272V100.172H648.535V119.272H646.838ZM668.789 115.534V116.93H651.301V115.534H656.178V110.979H652.891V109.583H655.877V103.352H652.848V101.956H667.113V103.352H664.084V109.583H667.07V110.979H663.783V115.534H668.789ZM657.553 109.583H662.43V103.352H657.553V109.583ZM657.875 115.534H662.107V110.979H657.875V115.534ZM687.303 115.491V116.909H669.814V115.491H677.678V111.881H672.006V105.995H683.436V102.987H671.963V101.59H685.09V107.37H673.682V110.485H685.541V111.881H679.332V115.491H687.303ZM709.678 100.172V119.272H708.066V100.172H709.678ZM693.113 114.18C695.777 112.59 697.335 109.099 697.324 105.629V103.825H693.65V102.428H702.459V103.825H698.957V105.629C698.957 108.927 700.45 112.225 703.082 113.75L702.051 114.997C700.171 113.869 698.839 111.806 698.173 109.378C697.485 112.01 696.1 114.255 694.188 115.448L693.113 114.18ZM700.998 108.444V107.069H704.221V100.645H705.811V118.284H704.221V108.444H700.998ZM718.652 105.307C718.642 108.798 721.016 112.3 723.83 113.579L722.799 114.911C720.618 113.858 718.738 111.591 717.825 108.874C716.944 111.752 715.064 114.169 712.83 115.297L711.756 113.879C714.603 112.58 716.955 108.927 716.977 105.307V101.827H718.652V105.307ZM725.914 119.315V100.172H727.611V119.315H725.914ZM745.158 100.172V108.057H748.359V109.454H745.158V119.272H743.482V100.172H745.158ZM730.27 104.641V103.245H735.189V100.409H736.865V103.245H741.635V104.641H730.27ZM731.365 110.614C731.354 108.036 733.331 106.231 736.049 106.231C738.745 106.231 740.711 108.036 740.732 110.614C740.711 113.203 738.745 114.997 736.049 114.997C733.331 114.997 731.354 113.203 731.365 110.614ZM732.977 110.614C732.966 112.354 734.266 113.579 736.049 113.557C737.811 113.579 739.1 112.354 739.121 110.614C739.1 108.884 737.811 107.638 736.049 107.649C734.266 107.638 732.966 108.884 732.977 110.614ZM754.025 101.655C755.776 101.666 757.205 102.686 758.032 104.448H763.049V100.172H764.725V119.315H763.049V111.903H758.15C757.355 113.836 755.873 114.964 754.025 114.954C751.2 114.964 749.224 112.386 749.234 108.315C749.224 104.254 751.2 101.666 754.025 101.655ZM750.846 108.315C750.856 111.419 752.146 113.46 754.025 113.45C755.895 113.46 757.205 111.419 757.205 108.315C757.205 105.21 755.895 103.169 754.025 103.159C752.146 103.169 750.856 105.21 750.846 108.315ZM758.516 105.866C758.698 106.607 758.795 107.423 758.795 108.315C758.795 109.099 758.72 109.84 758.58 110.506H763.049V105.866H758.516ZM787.744 102.106V104.018C787.723 106.36 787.723 108.981 787.035 112.827L785.316 112.633C786.036 108.981 786.036 106.306 786.047 104.018V103.502H774.273V102.106H787.744ZM772.426 116.565V115.168H779.258V108.336H780.912V115.168H789.828V116.565H772.426ZM807.16 100.194V111.452H805.549V106.403H802.949V111.323H801.338V100.559H802.949V105.006H805.549V100.194H807.16ZM791.047 110.399C795.011 108.788 797.256 106.199 797.578 102.987H791.82V101.59H799.318C799.308 106.156 796.729 109.604 791.885 111.667L791.047 110.399ZM794.27 113.708V112.333H807.16V119.272H805.506V113.708H794.27ZM826.877 108.208V109.561H809.453V108.208H826.877ZM811.559 112.59V111.28H824.621V115.706H813.277V117.682H825.201V119.057H811.602V114.438H822.967V112.59H811.559ZM811.773 106.639V100.838H824.6V102.192H813.471V105.264H824.793V106.639H811.773ZM834.219 101.569C837.216 101.58 839.343 103.406 839.354 106.059C839.343 108.723 837.216 110.539 834.219 110.549C831.2 110.539 829.052 108.723 829.062 106.059C829.052 103.406 831.2 101.58 834.219 101.569ZM828.074 113.665C831.598 113.675 836.464 113.643 840.686 113.02L840.814 114.266C836.442 115.083 831.748 115.104 828.311 115.104L828.074 113.665ZM830.717 106.059C830.706 107.842 832.178 109.067 834.219 109.067C836.238 109.067 837.71 107.842 837.699 106.059C837.71 104.287 836.238 103.051 834.219 103.051C832.178 103.051 830.706 104.287 830.717 106.059ZM841.953 119.315V100.172H843.629V119.315H841.953ZM858.076 103.18C858.055 105.909 859.999 108.304 862.803 109.26L861.857 110.571C859.752 109.787 858.098 108.229 857.271 106.22C856.454 108.508 854.714 110.281 852.404 111.151L851.48 109.776C854.424 108.745 856.379 106.209 856.4 103.245V101.268H858.076V103.18ZM854.596 115.663C854.585 113.364 857.023 112.042 860.998 112.053C864.962 112.042 867.4 113.364 867.4 115.663C867.4 117.94 864.962 119.229 860.998 119.229C857.023 119.229 854.585 117.94 854.596 115.663ZM856.271 115.663C856.261 117.048 858.065 117.886 860.998 117.875C863.92 117.886 865.725 117.048 865.725 115.663C865.725 114.234 863.92 113.385 860.998 113.385C858.065 113.385 856.261 114.234 856.271 115.663ZM861.385 105.672V104.276H865.639V100.172H867.336V111.495H865.639V105.672H861.385ZM876.482 103.803C876.493 106.306 878.362 108.541 881.166 109.454L880.371 110.786C878.169 110.055 876.504 108.541 875.677 106.618C874.86 108.809 873.099 110.517 870.811 111.344L869.951 109.991C872.809 109.024 874.807 106.564 874.828 103.803V102.987H870.467V101.59H880.779V102.987H876.482V103.803ZM872.486 115.706C872.497 113.503 874.893 112.225 878.824 112.225C882.745 112.225 885.119 113.503 885.119 115.706C885.119 117.94 882.745 119.229 878.824 119.229C874.893 119.229 872.497 117.94 872.486 115.706ZM874.184 115.706C874.162 117.081 875.945 117.886 878.824 117.875C881.714 117.886 883.476 117.081 883.486 115.706C883.476 114.374 881.714 113.579 878.824 113.579C875.945 113.579 874.162 114.374 874.184 115.706ZM883.271 111.709V100.172H884.947V105.049H887.826V106.467H884.947V111.709H883.271ZM899.121 102.299V103.288C899.11 104.802 899.11 107.327 898.562 110.872L896.865 110.721C897.392 107.52 897.435 105.2 897.424 103.674H889.41V102.299H899.121ZM888.336 113.665C889.593 113.654 890.989 113.643 892.461 113.611V107.756H894.115V113.557C896.231 113.482 898.401 113.342 900.389 113.106L900.475 114.374C896.457 114.997 891.967 115.083 888.551 115.061L888.336 113.665ZM901.592 119.272V100.172H903.268V108.165H906.361V109.625H903.268V119.272H901.592ZM914.535 100.989V103.739H920.1V100.989H921.775V109.303H912.881V100.989H914.535ZM914.535 107.928H920.1V105.049H914.535V107.928ZM914.814 112.311V110.958H926.996V115.577H916.512V117.682H927.705V119.057H914.857V114.288H925.32V112.311H914.814ZM925.32 110.055V100.172H926.996V104.319H929.875V105.737H926.996V110.055H925.32ZM946.412 100.194V114.202H944.715V106.875H940.783V105.479H944.715V100.194H946.412ZM930.664 110.377C933.479 109.389 935.52 106.865 935.52 104.125V103.137H931.201V101.741H941.492V103.137H937.217V104.125C937.217 106.596 939.129 108.992 941.922 109.948L941.041 111.301C938.893 110.517 937.228 108.917 936.4 106.94C935.573 109.153 933.812 110.904 931.545 111.752L930.664 110.377ZM934.145 118.864V112.934H935.842V117.446H946.949V118.864H934.145ZM957.793 100.516C962.036 100.516 964.528 101.687 964.539 103.803C964.528 105.973 962.036 107.144 957.793 107.155C953.528 107.144 951.025 105.973 951.025 103.803C951.025 101.687 953.528 100.516 957.793 100.516ZM949.092 109.819V108.444H966.494V109.819H949.092ZM951.197 112.762V111.473H964.26V115.749H952.916V117.725H964.84V119.057H951.24V114.502H962.605V112.762H951.197ZM952.787 103.803C952.766 105.135 954.624 105.866 957.793 105.866C960.962 105.866 962.81 105.135 962.82 103.803C962.81 102.546 960.962 101.794 957.793 101.784C954.624 101.794 952.766 102.546 952.787 103.803ZM979.459 106.038C979.47 109.282 981.822 112.58 984.637 113.793L983.691 115.125C981.457 114.116 979.534 111.914 978.643 109.271C977.751 112.075 975.817 114.502 973.637 115.598L972.627 114.266C975.366 112.956 977.751 109.346 977.762 106.038V103.545H973.25V102.149H984.014V103.545H979.459V106.038ZM986.678 119.272V100.172H988.375V119.272H986.678ZM1006.89 100.194V114.696H1005.19V112.719H1001.24V111.495H1005.19V100.194H1006.89ZM991.033 109.045C994.589 109.024 999.38 108.992 1003.47 108.487L1003.58 109.711C1001.88 109.98 1000.09 110.152 998.338 110.259V114.03H996.641V110.345C994.707 110.42 992.87 110.42 991.27 110.42L991.033 109.045ZM992.58 104.297C992.569 102.289 994.481 100.967 997.307 100.967C1000.11 100.967 1002.02 102.289 1002.03 104.297C1002.02 106.338 1000.11 107.606 997.307 107.606C994.481 107.606 992.569 106.338 992.58 104.297ZM993.783 118.864V113.278H995.48V117.446H1007.36V118.864H993.783ZM994.191 104.297C994.17 105.543 995.438 106.349 997.307 106.36C999.122 106.349 1000.41 105.543 1000.42 104.297C1000.41 103.073 999.122 102.235 997.307 102.256C995.438 102.235 994.17 103.073 994.191 104.297ZM1024.59 100.172V105.071H1027.46V106.51H1024.59V111.28H1022.91V100.172H1024.59ZM1009.7 103.545V102.149H1014.55V100H1016.23V102.149H1021.08V103.545H1009.7ZM1010.79 107.778C1010.78 105.737 1012.62 104.437 1015.39 104.426C1018.13 104.437 1019.97 105.737 1019.99 107.778C1019.97 109.819 1018.13 111.14 1015.39 111.129C1012.62 111.14 1010.78 109.819 1010.79 107.778ZM1012.4 107.778C1012.39 109.024 1013.59 109.84 1015.39 109.84C1017.17 109.84 1018.38 109.024 1018.4 107.778C1018.38 106.542 1017.17 105.715 1015.39 105.737C1013.59 105.715 1012.39 106.542 1012.4 107.778ZM1012.51 119.014V112.118H1014.19V114.159H1022.91V112.118H1024.59V119.014H1012.51ZM1014.19 117.661H1022.91V115.491H1014.19V117.661ZM1043.92 100.172V119.272H1042.24V100.172H1043.92ZM1029.41 114.352V102.063H1031.07V112.891C1033.99 112.87 1037 112.644 1040.2 111.967L1040.44 113.407C1037.04 114.116 1034.02 114.352 1030.96 114.352H1029.41ZM1061.46 100.172V107.735H1064.66V109.153H1061.46V119.315H1059.79V100.172H1061.46ZM1047.52 114.524V102.042H1056.44V103.438H1049.2V113.106C1052.65 113.095 1055.09 112.945 1057.94 112.418L1058.15 113.879C1055.16 114.417 1052.65 114.524 1049.02 114.524H1047.52ZM1067.21 117.661C1066.46 117.65 1065.82 117.027 1065.84 116.264C1065.82 115.512 1066.46 114.889 1067.21 114.889C1067.98 114.889 1068.6 115.512 1068.59 116.264C1068.6 117.027 1067.98 117.65 1067.21 117.661Z" fill="#222222"/>
</svg>
